<?xml version="1.0" standalone="no"?>
<!DOCTYPE svg PUBLIC "-//W3C//DTD SVG 20010904//EN"
 "http://www.w3.org/TR/2001/REC-SVG-20010904/DTD/svg10.dtd">
<svg version="1.0" xmlns="http://www.w3.org/2000/svg"
 width="201.000000pt" height="201.000000pt" viewBox="0 0 201.000000 201.000000"
 preserveAspectRatio="xMidYMid meet">
<metadata>
Created by potrace 1.11, written by Peter Selinger 2001-2013
</metadata>
<g transform="translate(0.000000,201.000000) scale(0.100000,-0.100000)"
fill="#000000" stroke="none">
<path d="M915 1689 c-4 -6 2 -21 14 -33 12 -12 21 -27 21 -32 0 -5 -43 -47
-95 -92 -104 -91 -115 -114 -74 -166 23 -29 41 -33 58 -13 8 11 6 18 -9 32
-11 10 -20 25 -20 34 0 9 36 47 80 84 104 88 116 107 100 147 -17 42 -60 64
-75 39z"/>
<path d="M1042 1588 c-8 -8 -6 -17 8 -36 11 -14 20 -28 20 -32 0 -5 -43 -45
-95 -90 -84 -72 -95 -86 -95 -114 0 -38 40 -82 64 -73 20 8 21 33 1 41 -33 12
-13 45 68 117 115 101 123 118 81 168 -28 34 -35 36 -52 19z"/>
<path d="M390 1155 l0 -45 -98 0 -98 0 -82 -67 -81 -68 0 -125 0 -125 80 -67
80 -68 100 0 99 0 0 -47 c0 -34 6 -53 22 -70 l21 -23 -146 0 -147 0 0 -54 c0
-53 1 -54 56 -100 l56 -46 687 0 686 0 53 46 c51 44 52 47 52 100 l0 54 -75 0
-74 0 20 35 c18 30 20 48 17 126 l-3 90 -41 39 c-53 49 -113 61 -179 35 -40
-15 -95 -64 -95 -84 0 -5 -20 -2 -44 6 -33 11 -52 12 -82 4 -45 -12 -142 -88
-162 -127 -14 -26 -13 -72 3 -106 7 -17 -9 -18 -243 -18 -138 0 -257 3 -266 6
-22 8 -20 26 2 23 9 -1 83 -1 165 0 140 1 147 2 147 21 0 19 -7 20 -185 20
l-185 0 0 33 c0 17 -3 49 -6 70 -6 31 -11 37 -30 37 -15 0 -24 -6 -24 -15 0
-12 -16 -15 -84 -15 l-85 0 -65 56 -66 55 0 108 0 108 60 52 60 53 115 5 c109
6 116 7 121 28 3 12 4 31 2 41 -3 18 13 19 489 22 l493 2 2 -167 c3 -166 3
-168 26 -171 l22 -3 0 190 0 191 -545 0 -545 0 0 -45z m1139 -441 c30 -25 31
-28 31 -115 0 -84 -2 -91 -26 -114 -27 -26 -68 -33 -79 -15 -3 6 3 10 14 10
20 0 21 6 21 115 0 111 -1 115 -21 115 -18 0 -19 2 -9 15 18 21 34 19 69 -11z
m-250 -95 c20 -36 3 -74 -57 -121 -50 -41 -69 -46 -78 -23 -5 13 3 22 91 98
29 25 29 27 12 44 -12 12 -21 15 -31 8 -75 -53 -80 -55 -37 -15 50 46 78 49
100 9z m37 -143 c21 -22 18 -26 -21 -26 -39 0 -43 6 -17 26 21 17 21 17 38 0z
m364 -91 c0 -16 -12 -36 -32 -55 l-33 -29 -673 -1 -673 0 -40 32 c-51 41 -52
65 -1 71 20 2 355 4 745 5 l707 2 0 -25z"/>
<path d="M390 1015 c0 -12 -15 -15 -75 -15 -74 0 -77 -1 -117 -38 l-40 -38 0
-76 c0 -75 1 -77 39 -112 l38 -35 101 -1 c84 0 103 3 108 16 8 20 8 228 0 277
-6 31 -11 37 -30 37 -15 0 -24 -6 -24 -15z m0 -165 l0 -110 -62 0 c-52 1 -68
5 -90 25 -25 21 -28 31 -28 85 0 54 3 64 28 85 22 20 38 24 90 25 l62 0 0
-110z"/>
</g>
</svg>
